<svg width="32" height="32" viewBox="0 0 32 32" fill="none" xmlns="http://www.w3.org/2000/svg">
<rect width="32" height="32" fill="white"/>
<path d="M16.1367 4.60105C16.578 4.59235 16.9939 4.70686 17.3574 4.91355C17.3779 4.92516 17.3979 4.93749 17.418 4.94968C17.4645 4.97794 17.511 5.00627 17.5557 5.03757C18.0779 5.40323 18.4646 5.97226 18.6172 6.64206C19.0006 5.69241 19.8743 5.05349 20.8545 5.02976C20.932 5.02783 21.0102 5.0297 21.0889 5.03562C21.1517 5.04039 21.215 5.04715 21.2783 5.0571C21.3272 5.06482 21.375 5.07678 21.4229 5.08738C21.4821 5.10047 21.5402 5.11592 21.5977 5.13327C21.7023 5.16497 21.8044 5.20155 21.9023 5.24656C22.7661 5.6426 23.3559 6.5336 23.4121 7.54441C23.8455 7.22663 24.3507 7.07254 24.8535 7.07859C24.862 7.07868 24.8704 7.07938 24.8789 7.07956C25.051 7.08349 25.2222 7.10727 25.3906 7.1489C25.617 7.20471 25.8367 7.29473 26.0439 7.41843C26.0619 7.42918 26.0809 7.43843 26.0986 7.44968C26.2896 7.57043 26.4686 7.72045 26.6299 7.89988C27.5875 8.96566 27.5568 10.6606 26.5605 11.685L26.0752 12.1831C27.1687 13.7018 27.7988 15.586 27.7988 17.8071C27.7988 24.2974 22.4262 27.0005 15.7988 27.0005C9.17157 27.0004 3.79883 24.2974 3.79883 17.8071C3.79896 12.0209 8.0698 8.51881 13.6924 7.82663L13.6836 7.32956C13.6566 5.85166 14.7552 4.63011 16.1367 4.60105Z" fill="#F46940"/>
<path d="M19.8859 15.8291C19.8859 16.6986 19.4897 17.4039 18.6788 17.4039C17.868 17.4039 17.4721 16.6989 17.4718 15.8291C17.4718 14.9596 17.868 14.2543 18.6788 14.2543C19.4897 14.2543 19.8856 14.9593 19.8859 15.8291Z" fill="white"/>
<path d="M14.5284 15.8291C14.5284 16.6986 14.1322 17.4039 13.3214 17.4039C12.5106 17.4039 12.1147 16.6989 12.1144 15.8291C12.1144 14.9596 12.5106 14.2543 13.3214 14.2543C14.1322 14.2543 14.5281 14.9593 14.5284 15.8291Z" fill="white"/>
<path d="M17.6933 20.906C17.6865 20.906 17.6809 20.906 17.6741 20.906C17.0915 20.9003 16.5315 20.6175 16.0033 20.0632C15.475 20.6175 14.9151 20.9003 14.3325 20.906C14.3268 20.906 14.32 20.906 14.3133 20.906C13.4094 20.906 12.8619 20.2329 12.802 20.156C12.6108 19.9094 12.656 19.5542 12.9026 19.3619C13.1481 19.1719 13.501 19.2148 13.6922 19.4581C13.7047 19.4728 13.9614 19.7748 14.3144 19.7748C14.3189 19.7748 14.3234 19.7748 14.328 19.7748C14.6764 19.7669 15.0757 19.4716 15.4841 18.9219C15.5904 18.7782 15.7589 18.6934 15.9377 18.6934H16.0644C16.2431 18.6934 16.4116 18.7782 16.518 18.9219C16.9263 19.4716 17.3257 19.7669 17.6741 19.7748C17.6786 19.7748 17.6831 19.7748 17.6876 19.7748C18.0474 19.7748 18.3075 19.4614 18.3098 19.4581C18.501 19.2115 18.855 19.1685 19.1017 19.3596C19.3483 19.5508 19.3912 19.9083 19.2001 20.156C19.1401 20.2329 18.5926 20.906 17.6888 20.906H17.6933Z" fill="white"/>
</svg>
