<svg width="26" height="26" viewBox="0 0 26 26" fill="none" xmlns="http://www.w3.org/2000/svg">
<path d="M8.18986 21.3016C9.56641 22.0955 11.1636 22.5498 12.8668 22.5498C18.0445 22.5498 22.2422 18.3525 22.2422 13.1748C22.2422 7.99714 18.0449 3.7998 12.8672 3.7998C7.68952 3.7998 3.49219 7.99714 3.49219 13.1748C3.49219 14.8781 3.9464 16.4752 4.7403 17.8518L4.74338 17.8571C4.81977 17.9895 4.85829 18.0563 4.87574 18.1194C4.89219 18.179 4.89679 18.2325 4.89258 18.2941C4.88805 18.3603 4.86573 18.429 4.81998 18.5662L4.01912 20.9688L4.01812 20.972C3.84914 21.4789 3.76466 21.7324 3.82488 21.9012C3.87739 22.0485 3.99394 22.1647 4.14119 22.2172C4.3097 22.2773 4.56203 22.1932 5.06672 22.025L5.073 22.0226L7.47557 21.2218C7.61237 21.1762 7.68191 21.1531 7.74801 21.1485C7.80964 21.1443 7.86279 21.1499 7.92232 21.1663C7.98561 21.1838 8.05243 21.2224 8.18554 21.2991L8.18556 21.2992L8.18986 21.3016Z" fill="#633434"/>
<circle cx="9.10957" cy="13.2453" r="0.660351" fill="white"/>
<circle cx="13.0725" cy="13.2453" r="0.660351" fill="white"/>
<circle cx="17.0334" cy="13.2453" r="0.660351" fill="white"/>
</svg>
